<!DOCTYPE svg PUBLIC "-//W3C//DTD SVG 1.1//EN" "http://www.w3.org/Graphics/SVG/1.1/DTD/svg11.dtd">
<!-- Uploaded to: SVG Repo, www.svgrepo.com, Transformed by: SVG Repo Mixer Tools -->
<svg fill="#000000" width="800px" height="800px" viewBox="0 0 24 24" id="balance-scale-right" data-name="Flat Color" xmlns="http://www.w3.org/2000/svg" class="icon flat-color">
<g id="SVGRepo_bgCarrier" stroke-width="0"/>
<g id="SVGRepo_tracerCarrier" stroke-linecap="round" stroke-linejoin="round"/>
<g id="SVGRepo_iconCarrier">
<path id="primary" d="M9,18a1,1,0,0,1-1-.71L6,10.52,4,17.29A1,1,0,0,1,2,16.71L4.57,8.32l-1.26.22a1,1,0,1,1-.34-2l8-1.42V3a1,1,0,0,1,2,0V4.81l7.69-1.35a1,1,0,0,1,.34,2l-1.79.32,2.72,10a1,1,0,1,1-1.92.52L18,8.8l-2,7.46A1,1,0,0,1,14,15.74l2.6-9.54L7.28,7.84,10,16.71A1,1,0,0,1,9.29,18,1,1,0,0,1,9,18Z" style="fill: #000000;"/>
<path id="secondary" d="M22,16v1a4,4,0,0,1-8,0V16a1,1,0,0,1,1-1h6A1,1,0,0,1,22,16ZM12,4a2,2,0,1,0,2,2A2,2,0,0,0,12,4ZM9,16H3a1,1,0,0,0-1,1v1a4,4,0,0,0,8,0V17A1,1,0,0,0,9,16Z" style="fill: #3688ff;"/>
</g>
</svg>