<?xml version="1.0" encoding="utf-8"?><!-- Uploaded to: SVG Repo, www.svgrepo.com, Generator: SVG Repo Mixer Tools -->
<svg fill="#000000" width="800px" height="800px" viewBox="0 0 24 24" id="balance-scale" data-name="Flat Color" xmlns="http://www.w3.org/2000/svg" class="icon flat-color"><path id="primary" d="M21,18a1,1,0,0,1-1-.74L18,9.8l-2,7.46A1,1,0,1,1,14,16.74L16.69,7H7.31L10,16.74A1,1,0,0,1,8,17.26L6,9.8,4,17.26A1,1,0,0,1,2,16.74L4.69,7H3A1,1,0,0,1,3,5h8V3a1,1,0,0,1,2,0V5h8a1,1,0,0,1,0,2H19.31L22,16.74a1,1,0,0,1-.7,1.22A.75.75,0,0,1,21,18Z" style="fill: rgb(0, 0, 0);"></path><path id="secondary" d="M22,17v1a4,4,0,0,1-8,0V17a1,1,0,0,1,1-1h6A1,1,0,0,1,22,17ZM9,16H3a1,1,0,0,0-1,1v1a4,4,0,0,0,8,0V17A1,1,0,0,0,9,16ZM12,4a2,2,0,1,0,2,2A2,2,0,0,0,12,4Z" style="fill: rgb(44, 169, 188);"></path></svg>