<!DOCTYPE svg PUBLIC "-//W3C//DTD SVG 1.1//EN" "http://www.w3.org/Graphics/SVG/1.1/DTD/svg11.dtd">
<!-- Uploaded to: SVG Repo, www.svgrepo.com, Transformed by: SVG Repo Mixer Tools -->
<svg version="1.1" id="Capa_1" xmlns="http://www.w3.org/2000/svg" xmlns:xlink="http://www.w3.org/1999/xlink" viewBox="0 0 612 792" xml:space="preserve" width="800px" height="800px" fill="#000000">
<g id="SVGRepo_bgCarrier" stroke-width="0"/>
<g id="SVGRepo_tracerCarrier" stroke-linecap="round" stroke-linejoin="round"/>
<g id="SVGRepo_iconCarrier"> <g> <g> <path style="fill:#3688ff;" d="M554.418,89.322H57.582C25.852,89.322,0,115.135,0,146.904v496.836 c0,31.73,25.852,57.545,57.582,57.545h187.557v1.394h129.108v-1.394h180.171c31.768,0,57.582-25.852,57.582-57.545V146.904 C612,115.135,586.186,89.322,554.418,89.322z M355.669,684.175h-92.026V482.034h92.026V684.175z M562.671,643.739 c0,4.522-3.693,8.215-8.253,8.215H374.247V463.531H245.139v188.424H57.582c-4.522,0-8.253-3.693-8.253-8.215V146.904 c0-4.56,3.731-8.215,8.253-8.215h496.836c4.56,0,8.253,3.693,8.253,8.215V643.739z"/> <rect x="100.354" y="192.691" style="fill:#3688ff;" width="104.876" height="104.876"/> <rect x="254.372" y="192.691" style="fill:#3688ff;" width="104.876" height="104.876"/> <rect x="412.949" y="192.691" style="fill:#3688ff;" width="104.876" height="104.876"/> <rect x="100.317" y="334.649" style="fill:#3688ff;" width="104.876" height="104.876"/> <rect x="254.372" y="334.649" style="fill:#3688ff;" width="104.839" height="104.876"/> <rect x="412.949" y="334.649" style="fill:#3688ff;" width="104.839" height="104.876"/> <rect x="412.949" y="482.524" style="fill:#3688ff;" width="104.876" height="104.876"/> <rect x="100.317" y="482.524" style="fill:#3688ff;" width="104.876" height="104.876"/> </g> </g> </g>
</svg>